# xmcd
#
# Track frame offsets: 
#        182
#        11525
#        22252
#        34940
#        44700
#        55510
#        64447
#        78187
#        89777
#        102020
#        114935
#        124912
#        136845
#        146925
#        158107
#        170787
#        186020
#        194285
#        206972
#        215640
#
# Disc length: 3036 seconds
#
# Revision: 1
# Processed by: cddbd v1.4PL0 Copyright (c) Steve Scherf et al.
# Submitted via: ExactAudioCopy v0.90b3
#
DISCID=300bda14
DTITLE=Porter Wagoner and Dolly Parton - 20 Greatest Hits
DYEAR=1900
DGENRE=Country
TTITLE0=Holding On To Nothin'
TTITLE1=Just Between You And Me
TTITLE2=Please Don't Stop Loving Me
TTITLE3=If Teardrops Were Pennies
TTITLE4=Just Someone I Used To Know
TTITLE5=We'll Get Ahead Someday
TTITLE6=Daddy Was An Old Time Preacher Man
TTITLE7=Is Forever Longer Than Always
TTITLE8=If You Go, I'll Follow You
TTITLE9=Forty Miles From Popular Bluff
TTITLE10=Making Plans
TTITLE11=The Last Thing On My Mind
TTITLE12=Better Move It On Home
TTITLE13=Yours Love
TTITLE14=Tomorrow Is Forever
TTITLE15=Lost Forever In Your Kiss
TTITLE16=Burning The Midnight Oil
TTITLE17=Jeannie's Afraid Of The Dark
TTITLE18=Before I Met You
TTITLE19=Silver Sandals
EXTD=
EXTT0=
EXTT1=
EXTT2=
EXTT3=
EXTT4=
EXTT5=
EXTT6=
EXTT7=
EXTT8=
EXTT9=
EXTT10=
EXTT11=
EXTT12=
EXTT13=
EXTT14=
EXTT15=
EXTT16=
EXTT17=
EXTT18=
EXTT19=
PLAYORDER=
